<?xml version="1.0" encoding="utf-8"?>
<!-- Generator: Adobe Illustrator 23.0.4, SVG Export Plug-In . SVG Version: 6.00 Build 0)  -->
<svg version="1.1" id="Layer_1" xmlns="http://www.w3.org/2000/svg" xmlns:xlink="http://www.w3.org/1999/xlink" x="0px" y="0px"
	 viewBox="0 0 400 155" style="enable-background:new 0 0 400 155;" xml:space="preserve">
<style type="text/css">
	.st0{fill:#FFFFFF;}
</style>
<g>
	<g>
		<path class="st0" d="M115.2,111.8c-0.9,1-2.1,2.1-3.5,3.3c-1.4,1.2-3,2.5-4.8,3.7s-3.7,2.5-5.7,3.6c-2.1,1.2-4.1,2.2-6.3,3.1
			c-2.1,0.9-4.3,1.6-6.4,2.2c-2.2,0.5-4.2,0.8-6.3,0.8c-1.4,0-2.8-0.2-4.2-0.7c-1.4-0.5-2.7-1.4-3.9-2.7c-1.2-1.3-2.1-3.1-2.8-5.3
			s-1.1-5.2-1.1-8.8c0-1.5,0.1-3.2,0.3-4.9s0.5-3.7,0.9-5.7c-2.4,4.9-5.2,9.3-8.3,13.1c-3.1,3.8-6.3,6.9-9.8,9.5
			c-3.5,2.6-7.1,4.5-10.8,5.8c-3.7,1.3-7.4,2-11.1,2c-4.1,0-7.9-0.7-11.6-2.1c-3.6-1.4-6.9-3.5-9.7-6.3c-2.8-2.8-5-6.3-6.6-10.5
			S1,102.6,1,97c0-4.2,0.5-8.7,1.5-13.3c1-4.6,2.4-9.3,4.3-14c1.9-4.7,4.1-9.4,6.8-14c2.7-4.6,5.7-9,9.1-13.2s7.1-8,11.2-11.6
			c4-3.6,8.3-6.6,12.9-9.2c4.6-2.6,9.4-4.6,14.5-6.1c5.1-1.5,10.3-2.2,15.8-2.2c1.5,0,2.7,0.1,3.6,0.4c0.9,0.2,1.6,0.5,2,0.9
			c0.5,0.4,0.8,0.8,0.9,1.1c0.1,0.4,0.2,0.7,0.2,1c0,0.2,0,0.4,0,0.6c0,0.2,0,0.3,0,0.4v0.3c1.2,0.7,2.4,1.1,3.6,1.3
			c1.2,0.2,2.4,0.3,3.6,0.4c1.2,0.1,2.3,0.3,3.3,0.7c1,0.4,2,1,2.8,2.1s1.4,2.5,1.9,4.5c0.5,2,0.7,4.6,0.7,8c0,2.6-0.3,5.6-0.8,8.8
			c-0.5,3.3-1.2,6.7-2,10.3c-0.8,3.6-1.8,7.2-2.8,10.9s-2.1,7.2-3.1,10.7c-1,3.4-2,6.7-3,9.8c-1,3.1-1.8,5.7-2.4,8
			c-0.1,1.9-0.2,3.7-0.3,5.4c-0.1,1.7-0.1,3.4-0.1,5.2c0,1.4,0,2.5,0.1,3.4c0.1,0.9,0.2,1.6,0.4,2.1c0.2,0.5,0.4,0.9,0.7,1.1
			c0.3,0.2,0.7,0.3,1.2,0.3c0.9,0,2-0.2,3.3-0.7s2.8-1,4.3-1.8c1.5-0.7,3.1-1.5,4.7-2.4c1.6-0.9,3.2-1.8,4.7-2.7
			c1.5-0.9,2.9-1.7,4.2-2.5c1.3-0.7,2.4-1.4,3.3-1.8L115.2,111.8z M84.2,27.2c-1.5-0.4-3.1-0.8-4.7-0.9s-3.2-0.3-4.7-0.3
			c-3.5,0-7,0.7-10.5,2c-3.4,1.4-6.8,3.2-10,5.5s-6.3,5.1-9.3,8.2c-2.9,3.2-5.7,6.6-8.2,10.2c-2.6,3.6-4.9,7.4-6.9,11.4
			c-2.1,3.9-3.8,7.8-5.3,11.8c-1.5,3.9-2.6,7.7-3.4,11.4c-0.8,3.7-1.2,7.1-1.2,10.2c0,6.2,1.2,10.9,3.7,14.3
			c2.5,3.4,6.3,5.1,11.5,5.1c3.2,0,6.3-0.7,9.2-2c2.9-1.4,5.6-3.1,8.1-5.3c2.5-2.2,4.8-4.7,6.8-7.5c2.1-2.8,3.9-5.6,5.4-8.4
			c1.5-2.8,2.8-5.6,3.8-8.2c1-2.6,1.7-4.9,2.2-6.8L84.2,27.2z"/>
		<path class="st0" d="M122.4,126.5c-2.4,0-4.6-1-6.6-3.1c-2-2.1-3.8-4.9-5.3-8.3c-1.5-3.5-2.7-7.5-3.5-12.1
			c-0.9-4.6-1.3-9.4-1.3-14.5c0-3.9,0.3-8.1,0.9-12.7c0.6-4.6,1.4-9.3,2.5-14.1c1.1-4.8,2.4-9.7,3.9-14.6c1.5-4.9,3.2-9.6,5.1-14.1
			s4-8.7,6.2-12.6c2.2-3.9,4.6-7.3,7-10.2s5-5.2,7.7-6.8c2.7-1.7,5.4-2.5,8.1-2.5c1.9,0,3.4,0.4,4.6,1.3c1.2,0.9,2.2,2,2.9,3.4
			s1.2,3,1.5,4.7c0.3,1.8,0.4,3.6,0.4,5.4c0,4.1-0.5,8.3-1.4,12.5s-2.2,8.5-3.8,12.8s-3.4,8.6-5.5,12.9c-2.1,4.3-4.3,8.6-6.5,12.9
			c-2.3,4.3-4.6,8.4-6.8,12.6c-2.3,4.1-4.4,8.2-6.4,12.1c-0.2,0.4-0.4,1-0.7,1.7c-0.2,0.7-0.5,1.5-0.7,2.3c-0.2,0.8-0.4,1.7-0.7,2.6
			c-0.2,0.9-0.4,1.8-0.5,2.7v0.9c0,1.1,0.1,2.2,0.4,3.3c0.2,1.1,0.5,2,0.9,2.9c0.3,0.9,0.7,1.5,1.1,2c0.4,0.5,0.8,0.8,1.1,0.8
			c0.8,0,1.8-0.2,2.8-0.5c1.1-0.3,2.2-0.8,3.4-1.4c1.2-0.6,2.4-1.3,3.7-2c1.3-0.8,2.5-1.5,3.7-2.3c2.8-1.8,5.6-3.9,8.6-6.4l5.4,13.7
			c-3.9,2.8-7.7,5.3-11.5,7.5c-1.7,0.9-3.4,1.8-5.1,2.7c-1.8,0.9-3.5,1.7-5.3,2.4c-1.8,0.7-3.5,1.3-5.2,1.7
			C125.5,126.3,123.9,126.5,122.4,126.5z M122.5,74.1c2-3.5,4-7.4,6.3-11.8c2.2-4.4,4.3-8.9,6.3-13.5s3.7-9.2,5.1-13.8
			c1.4-4.6,2.4-8.9,2.8-12.9c0-1.3,0-2.3-0.1-3.2s-0.3-1.3-0.6-1.3c-1.3,0-2.6,0.8-4.1,2.5c-1.5,1.6-2.9,3.9-4.4,6.6
			c-1.5,2.8-2.9,6-4.2,9.8c-1.3,3.7-2.5,7.7-3.6,11.8c-1,4.2-1.9,8.5-2.5,12.9S122.5,69.9,122.5,74.1z"/>
		<path class="st0" d="M185.7,77.4c1.3,2.5,2.2,5.2,2.8,8c0.6,2.8,0.9,5.5,0.9,8.1s-0.3,5.2-0.9,7.8c-0.6,2.6-1.4,5.1-2.5,7.6
			c-1.1,2.4-2.4,4.7-3.9,6.9c-1.6,2.1-3.3,4-5.3,5.6s-4.2,2.8-6.5,3.7c-2.4,0.9-4.9,1.4-7.5,1.4c-3.8,0-7.1-0.8-9.9-2.5
			c-2.7-1.7-5-3.9-6.7-6.6c-1.7-2.7-3-5.8-3.8-9.2s-1.2-6.9-1.2-10.3c0-4.8,0.7-9.3,2.2-13.5c1.4-4.2,3.5-7.8,6.2-10.9
			s6-5.5,9.9-7.3s8.2-2.7,13.1-2.7c4.1,0,8,0.6,11.7,1.9c3.6,1.3,7,3,10.2,5.2c3.2,2.2,6.1,4.6,8.8,7.4c2.7,2.8,5.3,5.7,7.6,8.6
			l-1.2,9.2c-1.2-1.6-2.8-3.3-4.8-5.1c-2-1.8-4.1-3.6-6.4-5.4c-2.2-1.7-4.5-3.4-6.6-4.9c-2.2-1.5-4.1-2.8-5.6-3.9L185.7,77.4z
			 M165.4,113.9c1.5,0,2.9-0.8,4.3-2.3c1.4-1.5,2.6-3.4,3.7-5.7s1.9-4.8,2.5-7.6c0.6-2.8,0.9-5.4,0.9-8c0-2-0.2-3.9-0.5-5.6
			c-0.3-1.7-0.8-3.2-1.4-4.5c-0.6-1.3-1.4-2.3-2.4-3c-1-0.7-2.1-1.1-3.5-1.1c-1.8,0-3.5,0.8-5.1,2.3c-1.6,1.5-3,3.5-4.3,5.9
			c-1.2,2.4-2.2,5-2.9,7.9c-0.7,2.9-1,5.7-1,8.3c0,1.8,0.2,3.6,0.5,5.2c0.3,1.6,0.9,3,1.6,4.2c0.7,1.2,1.7,2.2,2.9,2.9
			C162.3,113.5,163.7,113.9,165.4,113.9z"/>
		<path class="st0" d="M225.2,85.7c1.8-2.4,3.8-4.9,6-7.6c2.2-2.7,4.5-5.2,6.9-7.6c2.4-2.3,4.8-4.3,7.2-5.8c2.4-1.5,4.6-2.3,6.7-2.3
			c0.5,0,1.1,0.1,1.8,0.3c0.7,0.2,1.3,0.6,1.9,1.1c0.6,0.5,1.1,1.3,1.5,2.2c0.4,0.9,0.6,2.1,0.6,3.6c0,3-0.4,5.9-1.2,8.7
			c-0.8,2.8-1.7,5.6-2.7,8.4c-1,2.8-1.9,5.7-2.7,8.6c-0.8,2.9-1.2,6-1.2,9.2c0,1.7,0.3,3.1,0.8,4.2c0.5,1,1.2,1.6,2,1.6
			c1,0,2.2-0.2,3.3-0.7c1.2-0.4,2.4-1,3.5-1.7c1.2-0.7,2.3-1.5,3.5-2.4c1.1-0.9,2.2-1.8,3.2-2.8c2.4-2.2,4.8-4.8,7.1-7.6l1.1,17.4
			c-0.8,0.6-1.8,1.4-3,2.3c-1.2,0.9-2.5,1.9-4,2.9c-1.5,1-3,2.1-4.7,3.1s-3.4,2-5.1,2.8c-1.7,0.8-3.4,1.5-5.2,2
			c-1.7,0.5-3.4,0.8-4.9,0.8c-2.4,0-4.5-0.6-6.3-1.9c-1.8-1.3-3.2-2.9-4.4-4.9c-1.1-2-2-4.2-2.6-6.5s-0.9-4.6-0.9-6.7
			c0-1.4,0.2-3,0.6-4.7c0.4-1.7,0.8-3.5,1.4-5.2s1.2-3.4,1.8-5.1s1.3-3.1,1.9-4.5s1.1-2.4,1.5-3.2c0.4-0.8,0.7-1.3,0.9-1.4l-1.4-0.2
			c-0.7,0.5-2,1.7-3.8,3.7c-1.8,2-3.8,4.4-6,7.4c-2.2,3-4.5,6.4-6.9,10.1c-2.4,3.7-4.5,7.6-6.4,11.6c-1,2-1.7,3.7-2.4,5.1
			c-0.6,1.5-1.2,2.7-1.8,3.6c-0.6,0.9-1.2,1.6-1.9,2.1c-0.7,0.5-1.6,0.7-2.7,0.7c-1.4,0-2.6-0.4-3.4-1.2c-0.8-0.8-1.5-1.9-1.9-3.3
			c-0.4-1.4-0.7-2.9-0.9-4.7c-0.1-1.7-0.2-3.5-0.2-5.4c0-2.9,0-6.8,0.1-11.5c0.1-4.7,0.3-10,0.6-15.7c0.3-5.8,0.9-11.8,1.5-18.2
			s1.6-12.7,2.8-18.9c1.2-6.2,2.7-12.2,4.5-17.8c1.8-5.7,4-10.6,6.6-14.9c2.6-4.3,5.6-7.7,9.1-10.2c3.5-2.5,7.5-3.8,12-3.8
			c2.4,0,4.3,0.4,5.8,1s2.7,1.7,3.6,2.9c0.9,1.3,1.5,2.8,1.9,4.6c0.3,1.8,0.5,3.7,0.5,5.9c0,3.2-0.5,6.8-1.4,10.7
			c-0.9,3.9-2.1,8-3.6,12.2s-3.2,8.5-5.1,12.9s-3.9,8.6-5.9,12.6s-4,7.9-5.9,11.6s-3.7,6.8-5.1,9.6L225.2,85.7z M231,45.3
			c2.6-6.7,4.4-12.3,5.6-16.9c1.2-4.6,1.7-8,1.7-10.1c0-3.3-0.4-5-1.3-5c-1.1,0-2.8,1.9-5,5.6c-2.2,3.7-4.8,9.1-7.9,16.2
			c-0.7,2.4-1.4,4.9-2.1,7.5c-0.6,2.6-1.2,5.1-1.7,7.7c-0.5,2.6-1,5.1-1.4,7.5c-0.4,2.5-0.8,4.8-1.1,7c-0.7,5.2-1.3,10.3-1.7,15.3
			c1.2-2.7,2.5-5.7,3.9-9c1.4-3.2,2.8-6.4,4.1-9.6c1.4-3.2,2.6-6.2,3.8-9C229.3,49.6,230.3,47.3,231,45.3z"/>
		<path class="st0" d="M338.2,110.4c-1,1.4-2.3,3-4,4.9c-1.7,1.9-3.6,3.7-5.7,5.4s-4.3,3.1-6.7,4.3c-2.4,1.2-4.8,1.8-7.2,1.8
			c-2.9,0-5.3-0.9-7.2-2.8c-1.9-1.9-3.6-4.5-5-8.1c-1,1.2-2.3,2.5-3.9,3.7c-1.5,1.3-3.2,2.4-5,3.4c-1.8,1-3.7,1.9-5.7,2.5
			c-2,0.7-3.9,1-5.9,1c-2.1,0-4.1-0.4-6.1-1.3c-2-0.9-3.7-2.1-5.3-3.7c-1.5-1.6-2.7-3.5-3.7-5.8c-0.9-2.3-1.4-4.9-1.4-7.8
			c0-3.3,0.5-6.6,1.4-10.1c0.9-3.4,2.2-6.8,3.8-10.1c1.6-3.3,3.5-6.4,5.7-9.3c2.2-2.9,4.6-5.5,7.2-7.7c2.6-2.2,5.4-3.9,8.3-5.2
			c2.9-1.3,5.9-1.9,8.9-1.9c1,0,1.8,0.2,2.4,0.6c0.6,0.4,1,0.8,1.4,1.3c0.4,0.5,0.7,1,1.1,1.5c0.3,0.5,0.8,0.8,1.3,1
			c0.5,0.2,1.1,0.4,1.6,0.4s1.1,0.1,1.7,0.1c0.5,0,1,0,1.5,0c0.5,0,1,0,1.5,0c0.7,0,1.3,0.1,1.8,0.2c0.6,0.1,1.1,0.4,1.5,0.9
			c0.4,0.4,0.8,1,1,1.8c0.2,0.8,0.4,1.9,0.4,3.2c0,2.1-0.2,4.4-0.7,7c-0.4,2.6-0.9,5.2-1.4,7.9c-0.5,2.7-1,5.4-1.4,8.1
			c-0.4,2.7-0.7,5.2-0.7,7.6c0,2.1,0.2,3.7,0.6,4.8c0.4,1.2,1.2,1.7,2.4,1.7c0.9,0,1.9-0.2,2.9-0.7c1-0.5,2-1.1,3-1.8
			c1-0.7,2.1-1.6,3.1-2.5c1-0.9,2-1.9,2.9-2.9c2.1-2.4,4.3-5,6.5-8L338.2,110.4z M282.3,105.3c0,1.1,0.1,2.2,0.2,3.2
			c0.2,1,0.4,1.9,0.8,2.8c0.4,0.8,0.9,1.5,1.6,2c0.7,0.5,1.5,0.8,2.5,0.8c1.6,0,3.1-0.7,4.4-2.1c1.3-1.4,2.4-3.1,3.4-5
			c1-2,1.7-4,2.3-6.1c0.6-2.1,1-3.8,1.1-5.2l4-19.2c-1.8,0-3.5,0.4-5.2,1.3c-1.7,0.9-3.3,2.1-4.8,3.6s-2.9,3.3-4.2,5.2
			c-1.3,2-2.4,4-3.3,6.2c-0.9,2.2-1.6,4.3-2.1,6.5C282.6,101.3,282.3,103.3,282.3,105.3z"/>
	</g>
	<g>
		<path class="st0" d="M220,154.5l8.5-20.7h2.2l8.5,20.7h-2.8l-2.4-6.1h-8.7l-2.4,6.1L220,154.5L220,154.5z M229.6,136.8l-3.8,9.6
			h7.6L229.6,136.8z"/>
		<path class="st0" d="M241.9,154.5v-20.7h8.6c0.9,0,1.8,0.2,2.5,0.6c0.8,0.4,1.4,0.9,2,1.5c0.5,0.6,1,1.3,1.3,2.1
			c0.3,0.8,0.5,1.6,0.5,2.4c0,0.9-0.2,1.7-0.4,2.5c-0.3,0.8-0.7,1.5-1.2,2.1c-0.5,0.6-1.2,1.1-1.9,1.5c-0.8,0.4-1.6,0.5-2.5,0.5
			h-6.2v7.4H241.9z M244.6,144.7h6c0.5,0,1-0.1,1.5-0.3c0.4-0.2,0.8-0.5,1.1-0.9c0.3-0.4,0.6-0.9,0.7-1.4s0.3-1.1,0.3-1.7
			c0-0.6-0.1-1.2-0.3-1.7c-0.2-0.5-0.5-1-0.8-1.4c-0.3-0.4-0.7-0.7-1.2-0.9c-0.5-0.2-0.9-0.3-1.4-0.3h-5.9L244.6,144.7L244.6,144.7z
			"/>
		<path class="st0" d="M260,154.5v-20.7h8.6c0.9,0,1.8,0.2,2.5,0.6c0.8,0.4,1.4,0.9,2,1.5c0.5,0.6,1,1.3,1.3,2.1
			c0.3,0.8,0.5,1.6,0.5,2.4c0,0.9-0.2,1.7-0.4,2.5c-0.3,0.8-0.7,1.5-1.2,2.1c-0.5,0.6-1.2,1.1-1.9,1.5c-0.8,0.4-1.6,0.5-2.5,0.5
			h-6.2v7.4H260z M262.6,144.7h6c0.5,0,1-0.1,1.5-0.3c0.4-0.2,0.8-0.5,1.1-0.9c0.3-0.4,0.6-0.9,0.7-1.4s0.3-1.1,0.3-1.7
			c0-0.6-0.1-1.2-0.3-1.7c-0.2-0.5-0.5-1-0.8-1.4c-0.3-0.4-0.7-0.7-1.2-0.9c-0.5-0.2-0.9-0.3-1.4-0.3h-5.9L262.6,144.7L262.6,144.7z
			"/>
		<path class="st0" d="M274.6,154.5l8.5-20.7h2.2l8.5,20.7h-2.8l-2.4-6.1h-8.7l-2.4,6.1L274.6,154.5L274.6,154.5z M284.2,136.8
			l-3.8,9.6h7.6L284.2,136.8z"/>
		<path class="st0" d="M296.5,154.5v-20.7h8.9c0.9,0,1.8,0.2,2.5,0.6c0.8,0.4,1.4,0.9,2,1.5c0.6,0.6,1,1.3,1.3,2.1
			c0.3,0.8,0.5,1.6,0.5,2.4c0,0.7-0.1,1.4-0.3,2.1c-0.2,0.7-0.5,1.3-0.9,1.8c-0.4,0.5-0.8,1-1.4,1.4c-0.5,0.4-1.1,0.7-1.8,0.8l5,7.9
			h-3l-4.7-7.4h-5.5v7.4H296.5z M299.1,144.7h6.3c0.5,0,1-0.1,1.5-0.4c0.4-0.2,0.8-0.6,1.1-1c0.3-0.4,0.6-0.9,0.7-1.4
			c0.2-0.5,0.3-1.1,0.3-1.6s-0.1-1.1-0.3-1.6c-0.2-0.5-0.5-1-0.8-1.4c-0.3-0.4-0.7-0.7-1.2-0.9c-0.4-0.2-0.9-0.3-1.4-0.3h-6.1
			L299.1,144.7L299.1,144.7z"/>
		<path class="st0" d="M329.9,152.2v2.3h-14.1v-20.7h13.8v2.3h-11.2v6.7h9.7v2.2h-9.7v7.1L329.9,152.2L329.9,152.2z"/>
		<path class="st0" d="M333.6,154.5v-20.7h2.6v18.4h11.5v2.3L333.6,154.5L333.6,154.5z"/>
		<path class="st0" d="M356.1,144c0-1.2,0.2-2.5,0.7-3.7c0.4-1.2,1.1-2.3,1.9-3.3c0.8-1,1.9-1.8,3.1-2.4c1.2-0.6,2.6-0.9,4.2-0.9
			c1.8,0,3.4,0.4,4.8,1.2c1.3,0.8,2.3,1.9,2.9,3.3l-2.1,1.3c-0.3-0.7-0.7-1.2-1.1-1.6c-0.4-0.5-0.9-0.8-1.4-1.1
			c-0.5-0.3-1-0.5-1.6-0.6c-0.5-0.1-1.1-0.2-1.6-0.2c-1.2,0-2.2,0.2-3.1,0.7c-0.9,0.5-1.6,1.1-2.2,1.9c-0.6,0.8-1.1,1.6-1.4,2.6
			c-0.3,1-0.4,1.9-0.4,2.9c0,1.1,0.2,2.1,0.5,3.1c0.4,1,0.9,1.8,1.5,2.6c0.7,0.7,1.4,1.4,2.3,1.8c0.9,0.5,1.8,0.7,2.9,0.7
			c0.5,0,1.1-0.1,1.7-0.2c0.6-0.1,1.1-0.4,1.6-0.7c0.5-0.3,1-0.7,1.5-1.1c0.4-0.4,0.8-1,1.1-1.7l2.2,1.2c-0.3,0.8-0.8,1.4-1.4,2
			c-0.6,0.6-1.3,1.1-2,1.5c-0.7,0.4-1.5,0.7-2.4,0.9c-0.8,0.2-1.7,0.3-2.4,0.3c-1.4,0-2.7-0.3-3.9-0.9c-1.2-0.6-2.2-1.4-3.1-2.4
			c-0.9-1-1.5-2.1-2-3.4C356.3,146.6,356.1,145.3,356.1,144z"/>
		<path class="st0" d="M385.5,154.6c-1.4,0-2.8-0.3-4-0.9c-1.2-0.6-2.2-1.4-3.1-2.4c-0.9-1-1.5-2.1-2-3.4c-0.5-1.3-0.7-2.5-0.7-3.9
			c0-1.4,0.2-2.7,0.7-4c0.5-1.3,1.2-2.4,2-3.4c0.9-1,1.9-1.7,3.1-2.3c1.2-0.6,2.5-0.9,3.9-0.9c1.5,0,2.8,0.3,4,0.9
			c1.2,0.6,2.2,1.4,3.1,2.4c0.9,1,1.5,2.1,2,3.4c0.5,1.3,0.7,2.5,0.7,3.8c0,1.4-0.3,2.7-0.7,4c-0.5,1.3-1.2,2.4-2,3.3
			c-0.9,1-1.9,1.7-3.1,2.3C388.2,154.4,386.9,154.6,385.5,154.6z M378.4,144.1c0,1,0.2,2.1,0.5,3.1c0.3,1,0.8,1.8,1.4,2.6
			c0.6,0.8,1.4,1.4,2.2,1.8c0.9,0.4,1.8,0.7,2.9,0.7c1.1,0,2.1-0.2,3-0.7c0.9-0.5,1.6-1.1,2.2-1.9c0.6-0.8,1.1-1.6,1.4-2.6
			c0.3-1,0.5-2,0.5-2.9c0-1.1-0.2-2.1-0.5-3.1c-0.3-1-0.8-1.8-1.5-2.6c-0.6-0.8-1.4-1.3-2.2-1.8c-0.9-0.4-1.8-0.7-2.9-0.7
			c-1.1,0-2.1,0.2-3,0.7c-0.9,0.5-1.6,1.1-2.2,1.8c-0.6,0.7-1.1,1.6-1.4,2.6C378.6,142.1,378.4,143.1,378.4,144.1z"/>
		<path class="st0" d="M397.8,154.5v-3.3h2.2v3.3H397.8z"/>
	</g>
</g>
</svg>
