<?xml version="1.0" encoding="utf-8"?>
<!-- Generator: Adobe Illustrator 23.0.4, SVG Export Plug-In . SVG Version: 6.00 Build 0)  -->
<svg version="1.1" id="Layer_1" xmlns="http://www.w3.org/2000/svg" xmlns:xlink="http://www.w3.org/1999/xlink" x="0px" y="0px"
	 viewBox="0 0 100 100" style="enable-background:new 0 0 100 100;" xml:space="preserve">
<style type="text/css">
	.st0{fill:#FFFFFF;}
	.st1{opacity:0.4;fill:#FFFFFF;}
</style>
<g>
	<g>
		<path class="st0" d="M76.2,42.2H23.8c-2.9,0-5.2,2.3-5.2,5.2v1.7c0,2.3,1.5,4.2,3.6,4.9l5.2,18.2c0,0.1,0.1,0.2,0.1,0.3
			c2,4.1,4.4,4.5,6.8,4.5h31.5c2.4,0,4.7-0.3,6.8-4.4c0.1-0.1,0.1-0.2,0.1-0.3l5.2-18.3c2.1-0.7,3.6-2.6,3.6-4.9v-1.7
			C81.5,44.6,79.1,42.2,76.2,42.2z M65.1,69.8H34.5c-0.8,0-1.5-0.7-1.5-1.5c0-0.8,0.7-1.5,1.5-1.5h30.6c0.8,0,1.5,0.7,1.5,1.5
			C66.6,69.1,65.9,69.8,65.1,69.8z M67.1,61.8H33c-0.8,0-1.5-0.7-1.5-1.5c0-0.8,0.7-1.5,1.5-1.5h34.1c0.8,0,1.5,0.7,1.5,1.5
			C68.6,61.2,68,61.8,67.1,61.8z M68.7,53.8H31.9c-0.8,0-1.5-0.7-1.5-1.5c0-0.8,0.7-1.5,1.5-1.5h36.7c0.8,0,1.5,0.7,1.5,1.5
			C70.1,53.2,69.5,53.8,68.7,53.8z"/>
		<path class="st0" d="M35.9,38.3l12.9-13.2c0.4,0.1,0.8,0.2,1.2,0.2c0.4,0,0.9-0.1,1.3-0.2l12.8,13.2c0.4,0.4,0.9,0.6,1.4,0.6
			c0.5,0,0.9-0.2,1.3-0.5c0.7-0.7,0.8-1.9,0.1-2.6L53.6,22.1c0-0.1,0-0.3,0-0.5c0-2-1.6-3.7-3.7-3.7c-2,0-3.7,1.6-3.7,3.7
			c0,0.2,0,0.4,0.1,0.6L33.3,35.7c-0.7,0.7-0.7,1.9,0,2.6C34,39,35.2,39,35.9,38.3z"/>
	</g>
	<path class="st1" d="M50,99.5C22.7,99.5,0.5,77.3,0.5,50C0.5,22.7,22.7,0.5,50,0.5c27.3,0,49.5,22.2,49.5,49.5
		C99.5,77.3,77.3,99.5,50,99.5z M50,3.4C24.3,3.4,3.4,24.3,3.4,50c0,25.7,20.9,46.6,46.6,46.6c25.7,0,46.6-20.9,46.6-46.6
		C96.6,24.3,75.7,3.4,50,3.4z"/>
</g>
</svg>
